<?xml version="1.0" encoding="UTF-8" standalone="no"?>
<svg xmlns:dc="http://purl.org/dc/elements/1.1/" xmlns:cc="http://creativecommons.org/ns#" xmlns:rdf="http://www.w3.org/1999/02/22-rdf-syntax-ns#" xmlns:svg="http://www.w3.org/2000/svg" xmlns="http://www.w3.org/2000/svg" xmlns:sodipodi="http://sodipodi.sourceforge.net/DTD/sodipodi-0.dtd" xmlns:inkscape="http://www.inkscape.org/namespaces/inkscape" version="1.1" id="svg10865" viewBox="0 0 15.999999 15.999999" height="4.5155554mm" width="4.5155554mm" inkscape:version="0.92.0 r" sodipodi:docname="polari-paste-warning.svg">
  <sodipodi:namedview pagecolor="#ffffff" bordercolor="#666666" borderopacity="1" objecttolerance="10" gridtolerance="10" guidetolerance="10" inkscape:pageopacity="0" inkscape:pageshadow="2" inkscape:window-width="1920" inkscape:window-height="1016" id="namedview10" showgrid="true" inkscape:zoom="29.500001" inkscape:cx="10.984779" inkscape:cy="8.6969692" inkscape:window-x="0" inkscape:window-y="27" inkscape:window-maximized="0" inkscape:current-layer="svg10865">
    <inkscape:grid type="xygrid" id="grid7674"/>
  </sodipodi:namedview>
  <defs id="defs10867"/>
  <metadata id="metadata10870">
    <rdf:RDF>
      <cc:Work rdf:about="">
        <dc:format>image/svg+xml</dc:format>
        <dc:type rdf:resource="http://purl.org/dc/dcmitype/StillImage"/>
        <dc:title/>
      </cc:Work>
    </rdf:RDF>
  </metadata>
  <g style="display:inline" inkscape:label="task-due" id="g41006-4-1-9" transform="translate(-80.0001,-517.98241)" inkscape:export-xdpi="90" inkscape:export-ydpi="90">
    <rect width="16" height="16" x="-96" y="518" id="rect41008-3-9-7" style="color:#bebebe;display:inline;overflow:visible;visibility:visible;fill:none;stroke:none;stroke-width:1;marker:none;enable-background:new" transform="scale(-1,1)"/>
    <path style="fill:#bebebe;fill-opacity:1;stroke:none" d="m -80.5,181 c -0.293087,0 -0.646731,0.036 -1,0.3125 -0.353269,0.27647 -0.53125,0.76875 -0.53125,1.125 v 12.03125 c 0,0.384 0.127689,0.81517 0.4375,1.125 0.285418,0.28544 0.709136,0.38602 1.09375,0.375 v 0.0312 h 0.09375 4.4375 v -2 h -4.0625 v -11 h 0.96875 v -2 H -80.5 Z m 8.46875,0 v 2 H -71 v 4.03125 h 2 V 182.375 c 0,-0.33333 -0.118934,-0.72959 -0.40625,-1 C -69.693566,181.10459 -70.075149,181 -70.375,181 Z m -6.9375,4.03125 V 192 h 3 v -4.96875 H -72 v -2 z" transform="translate(163.0002,338)" id="rect4897-9-5-9" inkscape:connector-curvature="0"/>
    <rect style="fill:#bebebe;fill-opacity:1;stroke:none" id="rect4899-7-0-9" width="5.0625052" height="4" x="84.999992" y="518" rx="0.53033006" ry="0.53033006"/>
    <path inkscape:connector-curvature="0" class="warning" style="color:#bebebe;display:inline;overflow:visible;visibility:visible;fill:#f57900;fill-opacity:1;fill-rule:nonzero;stroke:none;stroke-width:2;marker:none" d="m 88.8752,526 c -0.49245,0 -0.875,0.38256 -0.875,0.875 v 6.25 c 0,0.49244 0.38255,0.875 0.875,0.875 h 6.25 c 0.49245,0 0.875,-0.38256 0.875,-0.875 v -6.25 c 0,-0.49244 -0.38255,-0.875 -0.875,-0.875 z m 2.125,1 h 2 v 4 h -2 z m 0,5 h 2 v 1 h -2 z" id="path10898-3-1-1-6-0-3" sodipodi:nodetypes="ccccccccccccccccccc"/>
  </g>
</svg>