<?xml version="1.0" encoding="UTF-8" standalone="no"?>
<svg
   height="16px"
   viewBox="0 0 16 16"
   width="16px"
   version="1.1"
   id="svg1104"
   xmlns="http://www.w3.org/2000/svg"
   xmlns:svg="http://www.w3.org/2000/svg">
  <defs
     id="defs1108" />
  <filter
     id="a"
     height="1"
     width="1"
     x="0"
     y="0">
    <feColorMatrix
       in="SourceGraphic"
       type="matrix"
       values="0 0 0 0 1 0 0 0 0 1 0 0 0 0 1 0 0 0 1 0"
       id="feColorMatrix1079" />
  </filter>
  <mask
     id="b">
    <g
       filter="url(#a)"
       id="g1084">
      <rect
         fill-opacity="0.35"
         height="16"
         width="16"
         id="rect1082" />
    </g>
  </mask>
  <clipPath
     id="c">
    <rect
       height="152"
       width="192"
       id="rect1087" />
  </clipPath>
  <g
     fill="#241f31"
     id="g1102">
    <path
       d="m 2 0 c -1.109375 0 -2 0.890625 -2 2 v 7 c 0 1.109375 0.890625 2 2 2 h 9 c 1.109375 0 2 -0.890625 2 -2 v -7 c 0 -1.109375 -0.890625 -2 -2 -2 z m 3 3 h 1 v 1 h 1 v -1 h 1 v 1 h 1 v 1 h -1 v 1 h 1 v 1 h -1 v 1 h -1 v -1 h -1 v 1 h -1 v -1 h -1 v -1 h 1 v -1 h -1 v -1 h 1 z m 1 2 v 1 h 1 v -1 z m 0 0"
       id="path1090" />
    <path
       d="m 3 11 v 3 l 3 -3 z m 0 0"
       id="path1092" />
    <g
       clip-path="url(#c)"
       mask="url(#b)"
       transform="matrix(1 0 0 1 -168 -16)"
       id="g1098">
      <path
         d="m 182 18 v 7 c 0 1.644531 -1.355469 3 -3 3 h -4.585938 l -1 1 h 8.585938 c 1.109375 0 2 -0.890625 2 -2 v -7 c 0 -1.109375 -0.890625 -2 -2 -2 z m 0 0"
         id="path1094" />
      <path
         d="m 181 29 v 3 l -3 -3 z m 0 0"
         id="path1096" />
    </g>
    <path
       d="m 3 11 v 3 l 3 -3 z m 0 0"
       id="path1100" />
  </g>
  <g
     id="g22108"
     style="display:inline;opacity:0.35;enable-background:new"
     transform="translate(-160,-172)">
    <g
       id="g22106">
      <path
         id="path22102"
         style="opacity:1;fill:#241f31;fill-opacity:1;stroke:none;stroke-width:0.25;stroke-linecap:round;stroke-linejoin:round;stroke-dashoffset:26.4"
         d="m 182,18 v 7 c 0,1.6447 -1.3553,3 -3,3 h -4.58594 l -1,1 H 182 c 1.108,0 2,-0.892 2,-2 v -7 c 0,-1.108 -0.892,-2 -2,-2 z"
         transform="translate(-8,156)" />
      <path
         d="m 173,185 v 3 l -3,-3 z"
         id="path22104"
         style="color:#000000;display:inline;overflow:visible;visibility:visible;fill:#241f31;fill-opacity:1;fill-rule:nonzero;stroke:none;stroke-width:1;marker:none;enable-background:accumulate" />
    </g>
  </g>
</svg>
