<?xml version="1.0" encoding="UTF-8"?>
<svg height="128px" viewBox="0 0 128 128" width="128px" xmlns="http://www.w3.org/2000/svg" xmlns:xlink="http://www.w3.org/1999/xlink">
    <defs>
        <linearGradient id="a" gradientUnits="userSpaceOnUse" x1="44" x2="124" y1="105.999969" y2="105.999969">
            <stop offset="0" stop-color="#c0bfbc"/>
            <stop offset="0.05" stop-color="#e4e3e2"/>
            <stop offset="0.1" stop-color="#c0bfbc"/>
            <stop offset="0.875" stop-color="#c0bfbc"/>
            <stop offset="0.9375" stop-color="#e4e3e2"/>
            <stop offset="1" stop-color="#c0bfbc"/>
        </linearGradient>
        <linearGradient id="b" gradientUnits="userSpaceOnUse" x1="4" x2="84" y1="82" y2="82">
            <stop offset="0" stop-color="#1f8556"/>
            <stop offset="0.05" stop-color="#33d17a"/>
            <stop offset="0.1" stop-color="#26a269" stop-opacity="0.973791"/>
            <stop offset="0.875" stop-color="#26a269" stop-opacity="0.972178"/>
            <stop offset="0.9375" stop-color="#33d17a"/>
            <stop offset="1" stop-color="#1f8456"/>
        </linearGradient>
        <filter id="c" height="100%" width="100%" x="0%" y="0%">
            <feColorMatrix in="SourceGraphic" type="matrix" values="0 0 0 0 1 0 0 0 0 1 0 0 0 0 1 0 0 0 1 0"/>
        </filter>
        <mask id="d">
            <g filter="url(#c)">
                <rect fill-opacity="0.35" height="128" width="128"/>
            </g>
        </mask>
        <mask id="e">
            <g filter="url(#c)">
                <rect fill-opacity="0.35" height="128" width="128"/>
            </g>
        </mask>
        <clipPath id="f">
            <rect height="152" width="192"/>
        </clipPath>
        <g id="g" clip-path="url(#f)">
            <path d="m 182 18 v 7 c 0 1.644531 -1.355469 3 -3 3 h -4.585938 l -1 1 h 8.585938 c 1.109375 0 2 -0.890625 2 -2 v -7 c 0 -1.109375 -0.890625 -2 -2 -2 z m 0 0" fill="#241f31"/>
            <path d="m 181 29 v 3 l -3 -3 z m 0 0" fill="#241f31"/>
        </g>
        <clipPath id="h">
            <rect height="128" width="128"/>
        </clipPath>
        <clipPath id="i">
            <rect height="128" width="128"/>
        </clipPath>
        <mask id="j">
            <g clip-path="url(#i)" filter="url(#c)">
                <g clip-path="url(#h)">
                    <path d="m 108.1875 94 v 26 l -26 -26 z m 0 0" fill="#f6f5f4" fill-rule="evenodd"/>
                    <path d="m 116 36 h -64 c -4.417969 0 -8 3.582031 -8 8 v 52 c 0 4.417969 3.582031 8 8 8 h 64 c 4.417969 0 8 -3.582031 8 -8 v -52 c 0 -4.417969 -3.582031 -8 -8 -8 z m 0 0" fill="#f6f5f4"/>
                    <path d="m 124 92 v 4 c 0 4.433594 -3.566406 8 -8 8 h -8 v -4 h 8 c 4.433594 0 8 -3.566406 8 -8 z m -80 0 c 0 4.433594 3.566406 8 8 8 h 40 l 16 16 v 4 l -16 -16 h -40 c -4.433594 0 -8 -3.566406 -8 -8 z m 0 0" fill="url(#a)" fill-rule="evenodd"/>
                    <path d="m 20 70 v 26 l 26 -26 z m 0 0" fill="#33d17a" fill-rule="evenodd"/>
                    <path d="m 12 12 h 64 c 4.417969 0 8 3.582031 8 8 v 52 c 0 4.417969 -3.582031 8 -8 8 h -64 c -4.417969 0 -8 -3.582031 -8 -8 v -52 c 0 -4.417969 3.582031 -8 8 -8 z m 0 0" fill="#33d17a"/>
                    <path d="m 4 68 v 4 c 0 4.433594 3.566406 8 8 8 h 8 v -4 h -8 c -4.433594 0 -8 -3.566406 -8 -8 z m 80 0 c 0 4.433594 -3.566406 8 -8 8 h -40 l -16 16 v 4 l 16 -16 h 40 c 4.433594 0 8 -3.566406 8 -8 z m 0 0" fill="url(#b)" fill-rule="evenodd"/>
                    <path d="m 36 28 h 4 v 32 h -4 z m 0 0" fill="#ffffff"/>
                    <path d="m 48 28 h 4 v 32 h -4 z m 0 0" fill="#ffffff"/>
                    <path d="m 60 36 v 4 h -32 v -4 z m 0 0" fill="#ffffff"/>
                    <path d="m 60 48 v 4 h -32 v -4 z m 0 0" fill="#ffffff"/>
                    <use mask="url(#e)" transform="matrix(1 0 0 1 -8 -16)" xlink:href="#g"/>
                </g>
            </g>
        </mask>
        <mask id="k">
            <g filter="url(#c)">
                <rect fill-opacity="0.8" height="128" width="128"/>
            </g>
        </mask>
        <linearGradient id="l" gradientTransform="matrix(0 0.37 -0.98462 0 295.38501 -30.360001)" gradientUnits="userSpaceOnUse" x1="300" x2="428" y1="235" y2="235">
            <stop offset="0" stop-color="#f9f06b"/>
            <stop offset="1" stop-color="#f5c211"/>
        </linearGradient>
        <clipPath id="m">
            <rect height="128" width="128"/>
        </clipPath>
        <clipPath id="n">
            <rect height="128" width="128"/>
        </clipPath>
    </defs>
    <path d="m 108.1875 94 v 26 l -26 -26 z m 0 0" fill="#f6f5f4" fill-rule="evenodd"/>
    <path d="m 116 36 h -64 c -4.417969 0 -8 3.582031 -8 8 v 52 c 0 4.417969 3.582031 8 8 8 h 64 c 4.417969 0 8 -3.582031 8 -8 v -52 c 0 -4.417969 -3.582031 -8 -8 -8 z m 0 0" fill="#f6f5f4"/>
    <path d="m 124 92 v 4 c 0 4.433594 -3.566406 8 -8 8 h -8 v -4 h 8 c 4.433594 0 8 -3.566406 8 -8 z m -80 0 c 0 4.433594 3.566406 8 8 8 h 40 l 16 16 v 4 l -16 -16 h -40 c -4.433594 0 -8 -3.566406 -8 -8 z m 0 0" fill="url(#a)" fill-rule="evenodd"/>
    <path d="m 20 70 v 26 l 26 -26 z m 0 0" fill="#33d17a" fill-rule="evenodd"/>
    <path d="m 12 12 h 64 c 4.417969 0 8 3.582031 8 8 v 52 c 0 4.417969 -3.582031 8 -8 8 h -64 c -4.417969 0 -8 -3.582031 -8 -8 v -52 c 0 -4.417969 3.582031 -8 8 -8 z m 0 0" fill="#33d17a"/>
    <path d="m 4 68 v 4 c 0 4.433594 3.566406 8 8 8 h 8 v -4 h -8 c -4.433594 0 -8 -3.566406 -8 -8 z m 80 0 c 0 4.433594 -3.566406 8 -8 8 h -40 l -16 16 v 4 l 16 -16 h 40 c 4.433594 0 8 -3.566406 8 -8 z m 0 0" fill="url(#b)" fill-rule="evenodd"/>
    <g fill="#ffffff">
        <path d="m 36 28 h 4 v 32 h -4 z m 0 0"/>
        <path d="m 48 28 h 4 v 32 h -4 z m 0 0"/>
        <path d="m 60 36 v 4 h -32 v -4 z m 0 0"/>
        <path d="m 60 48 v 4 h -32 v -4 z m 0 0"/>
    </g>
    <use mask="url(#d)" transform="matrix(1 0 0 1 -8 -16)" xlink:href="#g"/>
    <g clip-path="url(#n)" mask="url(#j)">
        <g clip-path="url(#m)" mask="url(#k)">
            <path d="m 128 80.640625 v 47.359375 h -128 v -47.359375 z m 0 0" fill="url(#l)"/>
            <path d="m 13.308594 80.640625 l 47.355468 47.359375 h 21.214844 l -47.359375 -47.359375 z m 42.421875 0 l 47.363281 47.359375 h 21.214844 l -47.363282 -47.359375 z m 42.429687 0 l 29.839844 29.839844 v -21.210938 l -8.628906 -8.628906 z m -98.160156 7.90625 v 21.214844 l 18.238281 18.238281 h 21.214844 z m 0 0"/>
        </g>
    </g>
</svg>
